<svg xmlns="http://www.w3.org/2000/svg" viewBox="0 0 124 129" width="124" height="129">
  <svg x="0.000" y="15.183" width="123.293" height="62.771" viewBox="0 0 123.291 62.78" overflow="visible">
    <path id="Vector" d="M60.5205 62.77C32.5205 62.77 8.75053 44.35 0.690533 18.98C-2.29947 9.58004 4.8005 0 14.6605 0C21.0605 0 26.6505 4.18003 28.6205 10.28C32.9705 23.75 45.6305 33.52 60.5205 33.52C79.0005 33.52 94.0405 18.49 94.0405 0.0100098H123.291C123.291 34.62 95.1305 62.78 60.5205 62.78" fill="var(--fill-0, #011638)"/>
  </svg>
  <svg x="94.029" y="0.555" width="29.264" height="29.257" viewBox="0 0 29.26 29.2599" overflow="visible">
    <path id="Vector" d="M29.26 14.6299C29.26 22.7099 22.71 29.2599 14.63 29.2599C6.55 29.2599 0 22.7099 0 14.6299C0 6.54994 6.55 0 14.63 0C22.71 0 29.26 6.54994 29.26 14.6299Z" fill="var(--fill-0, #7458FD)"/>
  </svg>
  <svg x="18.662" y="77.942" width="82.510" height="41.886" viewBox="0 0 82.5118 41.89" overflow="visible">
    <path id="Vector" d="M73.47 41.89C69.48 41.89 65.9001 39.29 64.8101 35.44C61.9901 25.43 52.78 18.08 41.89 18.08C28.76 18.08 18.08 28.76 18.08 41.89H0C0 18.79 18.79 0 41.89 0C60.97 0 77.11 12.82 82.15 30.3C83.82 36.1 79.5 41.89 73.47 41.89Z" fill="var(--fill-0, #011638)"/>
  </svg>
  <svg x="18.674" y="110.785" width="18.079" height="18.086" viewBox="0 0 18.08 18.08" overflow="visible">
    <path id="Vector" d="M18.08 9.03998C18.08 14.03 14.03 18.08 9.04004 18.08C4.05004 18.08 0 14.03 0 9.03998C0 4.04998 4.05004 0 9.04004 0C14.03 0 18.08 4.04998 18.08 9.03998Z" fill="var(--fill-0, #7458FD)"/>
  </svg>
</svg>