<svg xmlns="http://www.w3.org/2000/svg" viewBox="0 0 499.311 128.32" width="499.311" height="128.32">
  <svg x="221.045" y="36.995" width="64.012" height="72.860" viewBox="0 0 64.04 72.87" overflow="visible">
    <path id="Vector" d="M0 41.75V0H18.0601V41.75C18.0601 50.46 23.18 56.35 32.02 56.35C40.86 56.35 45.98 50.46 45.98 41.75V0H64.04V41.75C64.04 61.6 51.75 72.87 32.02 72.87C12.29 72.87 0 61.47 0 41.75Z" fill="var(--fill-0, white)"/>
  </svg>
  <svg x="407.737" y="26.318" width="18.075" height="81.868" viewBox="0 0 18.0599 81.8701" overflow="visible">
    <path id="Vector" d="M18.0599 0H0V81.8701H18.0599V0Z" fill="var(--fill-0, white)"/>
  </svg>
  <svg x="146.598" y="35.557" width="74.447" height="84.127" viewBox="0 0 74.4107 84.1213" overflow="visible">
    <path id="Vector" d="M74.37 35.0213C73.5 16.3513 58.46 1.14134 39.8 0.0613422C31.74 -0.398658 24.1901 1.75133 17.9301 5.74133V1.44135H0V84.1213H18.0601V67.9013C23.7301 71.4813 30.45 73.5613 37.63 73.5613C58.49 73.5613 75.35 56.1013 74.37 35.0213ZM37.63 56.4213C26.8 56.4213 17.9901 47.6113 17.9901 36.7813C17.9901 25.9513 26.8 17.1413 37.63 17.1413C48.46 17.1413 57.27 25.9513 57.27 36.7813C57.27 47.6113 48.46 56.4213 37.63 56.4213Z" fill="var(--fill-0, white)"/>
  </svg>
  <svg x="333.340" y="35.557" width="74.397" height="84.127" viewBox="0 0 74.4107 84.1213" overflow="visible">
    <path id="Vector" d="M74.37 35.0213C73.5 16.3513 58.4599 1.14134 39.7999 0.0613422C31.7399 -0.398658 24.1899 1.75133 17.9299 5.74133V1.44135H0V84.1213H18.0599V67.9013C23.7299 71.4813 30.45 73.5613 37.63 73.5613C58.49 73.5613 75.35 56.1013 74.37 35.0213ZM37.63 56.4213C26.8 56.4213 17.99 47.6113 17.99 36.7813C17.99 25.9513 26.8 17.1413 37.63 17.1413C48.46 17.1413 57.27 25.9513 57.27 36.7813C57.27 47.6113 48.46 56.4213 37.63 56.4213Z" fill="var(--fill-0, white)"/>
  </svg>
  <svg x="289.351" y="36.956" width="39.745" height="71.230" viewBox="0 0 39.73 71.229" overflow="visible">
    <path id="Vector" d="M17.99 36.779C17.99 25.949 26.8 17.1389 37.63 17.1389C38.34 17.1389 39.04 17.1789 39.73 17.2489V0.0589225C31.69 -0.391077 24.1699 1.75891 17.9299 5.73891V0.0289542H0V71.229H18.0599L17.99 36.7689V36.779Z" fill="var(--fill-0, white)"/>
  </svg>
  <svg x="0.000" y="14.628" width="123.280" height="62.787" viewBox="0 0 123.291 62.78" overflow="visible">
    <path id="Vector" d="M60.5205 62.77C32.5205 62.77 8.75053 44.35 0.690533 18.98C-2.29947 9.58004 4.8005 0 14.6605 0C21.0605 0 26.6505 4.18003 28.6205 10.28C32.9705 23.75 45.6305 33.52 60.5205 33.52C79.0005 33.52 94.0405 18.49 94.0405 0.0100098H123.291C123.291 34.62 95.1305 62.78 60.5205 62.78" fill="var(--fill-0, white)"/>
  </svg>
  <svg x="94.020" y="0.000" width="29.260" height="29.257" viewBox="0 0 29.26 29.2599" overflow="visible">
    <path id="Vector" d="M29.26 14.6299C29.26 22.7099 22.71 29.2599 14.63 29.2599C6.55 29.2599 0 22.7099 0 14.6299C0 6.54994 6.55 0 14.63 0C22.71 0 29.26 6.54994 29.26 14.6299Z" fill="var(--fill-0, #011638)"/>
  </svg>
  <svg x="18.674" y="77.390" width="82.486" height="41.896" viewBox="0 0 82.5118 41.89" overflow="visible">
    <path id="Vector" d="M73.47 41.89C69.48 41.89 65.9001 39.29 64.8101 35.44C61.9901 25.43 52.78 18.08 41.89 18.08C28.76 18.08 18.08 28.76 18.08 41.89H0C0 18.79 18.79 0 41.89 0C60.97 0 77.11 12.82 82.15 30.3C83.82 36.1 79.5 41.89 73.47 41.89Z" fill="var(--fill-0, white)"/>
  </svg>
  <svg x="18.674" y="110.240" width="18.075" height="18.080" viewBox="0 0 18.08 18.08" overflow="visible">
    <path id="Vector" d="M18.08 9.03998C18.08 14.03 14.03 18.08 9.04004 18.08C4.05004 18.08 0 14.03 0 9.03998C0 4.04998 4.05004 0 9.04004 0C14.03 0 18.08 4.04998 18.08 9.03998Z" fill="var(--fill-0, #011638)"/>
  </svg>
  <svg x="425.762" y="35.570" width="73.549" height="73.553" viewBox="0 0 73.53 73.5553" overflow="visible">
    <path id="Vector" d="M56.39 37.4753C56.22 42.2753 54.32 47.0254 50.67 50.6754C44.55 56.8054 35.35 58.0253 27.99 54.3453L54.3399 27.9954L66.8 15.5353C65.62 13.8653 64.28 12.2653 62.79 10.7753C61.07 9.05532 59.22 7.54535 57.27 6.23535C42.97 -3.38465 23.42 -1.87467 10.77 10.7753C-3.59 25.1353 -3.59 48.4253 10.77 62.7853C25.13 77.1453 48.42 77.1453 62.78 62.7853C69.79 55.7753 73.36 46.6453 73.53 37.4653H56.39V37.4753ZM22.89 22.9053C28.78 17.0153 37.5001 15.6653 44.7001 18.8253L18.81 44.7153C15.65 37.5153 17.01 28.7953 22.89 22.9053Z" fill="var(--fill-0, white)"/>
  </svg>
</svg>