<svg preserveAspectRatio="none" width="100%" height="100%" overflow="visible" style="display: block;" viewBox="0 0 73.53 73.5553" fill="none" xmlns="http://www.w3.org/2000/svg">
<path id="Vector" d="M56.39 37.4753C56.22 42.2753 54.32 47.0254 50.67 50.6754C44.55 56.8054 35.35 58.0253 27.99 54.3453L54.3399 27.9954L66.8 15.5353C65.62 13.8653 64.28 12.2653 62.79 10.7753C61.07 9.05532 59.22 7.54535 57.27 6.23535C42.97 -3.38465 23.42 -1.87467 10.77 10.7753C-3.59 25.1353 -3.59 48.4253 10.77 62.7853C25.13 77.1453 48.42 77.1453 62.78 62.7853C69.79 55.7753 73.36 46.6453 73.53 37.4653H56.39V37.4753ZM22.89 22.9053C28.78 17.0153 37.5001 15.6653 44.7001 18.8253L18.81 44.7153C15.65 37.5153 17.01 28.7953 22.89 22.9053Z" fill="var(--fill-0, white)"/>
</svg>
