<svg width="35" height="36" viewBox="0 0 35 36" fill="none" xmlns="http://www.w3.org/2000/svg">
<path d="M16.9691 21.403C9.11831 21.403 2.45353 16.3094 0.193616 9.2939C-0.64474 6.69455 1.346 4.04541 4.11061 4.04541C5.90508 4.04541 7.47243 5.2013 8.0248 6.88811C9.24448 10.6129 12.7942 13.3146 16.9691 13.3146C22.1507 13.3146 26.3677 9.15839 26.3677 4.04818H34.569C34.569 13.6188 26.6733 21.4058 16.9691 21.4058" fill="white"/>
<path d="M34.5689 4.04557C34.5689 6.2799 32.7324 8.09115 30.4669 8.09115C28.2013 8.09115 26.3648 6.2799 26.3648 4.04557C26.3648 1.81123 28.2013 0 30.4669 0C32.7324 0 34.5689 1.81123 34.5689 4.04557Z" fill="#7458FD"/>
<path d="M25.8322 32.9841C24.7134 32.9841 23.7097 32.2651 23.4041 31.2005C22.6134 28.4325 20.031 26.4 16.9776 26.4C13.2961 26.4 10.3016 29.3533 10.3016 32.9841H5.23218C5.23218 26.5963 10.5006 21.4004 16.9776 21.4004C22.3274 21.4004 26.8528 24.9455 28.2659 29.7792C28.7342 31.383 27.5229 32.9841 25.8322 32.9841Z" fill="white"/>
<path d="M10.3044 32.9842C10.3044 34.364 9.16882 35.484 7.76969 35.484C6.37056 35.484 5.23499 34.364 5.23499 32.9842C5.23499 31.6043 6.37056 30.4844 7.76969 30.4844C9.16882 30.4844 10.3044 31.6043 10.3044 32.9842Z" fill="#7458FD"/>
</svg>
